# xmcd
#
# Track frame offsets: 
#        150
#        13608
#        25802
#        38637
#        49777
#        61512
#        72890
#        87102
#        97127
#        112168
#        125757
#        139000
#        155034
#        168333
#        180455
#        192416
#        205736
#        220795
#        232385
#        247821
#        261194
#        272231
#        281987
#        289077
#        300092
#
# Disc length: 4214 seconds
#
# Revision: 0
# Processed by: cddbd v1.5.2PL0 Copyright (c) Steve Scherf et al.
# Submitted via: ExactAudioCopy v1.0b3
#
DISCID=6e107419
DTITLE=Various Artist - Definitive Detroit Blues [CD3]
DYEAR=2013
DGENRE=Blues
TTITLE0=John Lee Hooker - Please Take Me Back
TTITLE1=Eddie 'guitar' Burns - Papa's Boogie
TTITLE2=Calvin Frazier - She's Double Crossing Woman
TTITLE3=Johnny Howard - Dark Night Blues
TTITLE4=Baby Boy Warren - Somebody Put Bad Luck On Me
TTITLE5=T.J. Fowler - Red Hot Blues
TTITLE6=Playboy Fuller - Gonna Play My Guitar
TTITLE7=T.J. Fowler and Alberta Adams - Say Baby Say
TTITLE8=Detroit Count - Hastings Street Opera (part 2)
TTITLE9=Andrew Dunham - Hattie Mae
TTITLE10=Eddie 'guitar' Burns - Dealing With The Devil
TTITLE11=Sampson Pittman - Highway 61 Blues
TTITLE12=Sylvester Cotton - Sak Relation Blues
TTITLE13=John Lee Hooker - Bumble Bee Blues
TTITLE14=Johnny Howard - Natural Man Blues
TTITLE15=Baby Boy Warren - Nervy Woman Blues
TTITLE16=Henry Smith - Lonesome Blues
TTITLE17=Sam Kelly - Ramblin' Around Blues
TTITLE18=Robert Richard - Wig Wearing Woman
TTITLE19=Calvin Frazier - Rock House
TTITLE20=Wild Bill Moore - Burnt Toast
TTITLE21=Bobo Jenkins - Ten Below Zero
TTITLE22=Calvin Frazier - I'm In The Highway, Man
TTITLE23=Big Maceo - Big City Blues
TTITLE24=John Lee Hooker - I Do Like I Please
EXTD=
EXTT0=
EXTT1=
EXTT2=
EXTT3=
EXTT4=
EXTT5=
EXTT6=
EXTT7=
EXTT8=
EXTT9=
EXTT10=
EXTT11=
EXTT12=
EXTT13=
EXTT14=
EXTT15=
EXTT16=
EXTT17=
EXTT18=
EXTT19=
EXTT20=
EXTT21=
EXTT22=
EXTT23=
EXTT24=
PLAYORDER=
